<!DOCTYPE svg PUBLIC "-//W3C//DTD SVG 1.1//EN" "http://www.w3.org/Graphics/SVG/1.1/DTD/svg11.dtd">

<!-- Uploaded to: SVG Repo, www.svgrepo.com, Transformed by: SVG Repo Mixer Tools -->
<svg height="244px" width="244px" version="1.1" id="Layer_1" xmlns="http://www.w3.org/2000/svg" xmlns:xlink="http://www.w3.org/1999/xlink" viewBox="0 0 512.00 512.00" xml:space="preserve" fill="#000000" stroke="#000000" stroke-width="0.0051200099999999995" transform="matrix(1, 0, 0, 1, 0, 0)">

<g id="SVGRepo_bgCarrier" stroke-width="0"/>

<g id="SVGRepo_tracerCarrier" stroke-linecap="round" stroke-linejoin="round" stroke="#CCCCCC" stroke-width="12.288023999999998"> <path style="fill:#F15A24;" d="M474.692,343.155c-6.943,0.001-13.884-2.648-19.181-7.945l-35.159-35.159H137.324 c-7.195,0-14.094-2.858-19.181-7.945L18.128,192.092c-10.593-10.594-10.593-27.769,0-38.363c10.593-10.593,27.769-10.593,38.363,0 l92.07,92.07h283.028c7.195,0,14.094,2.858,19.181,7.945l43.104,43.105c10.593,10.594,10.593,27.769,0,38.363 C488.578,340.506,481.634,343.154,474.692,343.155z"/> <path d="M501.086,289.636l-43.105-43.106c-7.05-7.049-16.424-10.931-26.393-10.931H229.481v-28.567h26.52 c5.632,0,10.2-4.566,10.2-10.2s-4.568-10.2-10.2-10.2H103.819l-40.116-40.116c-14.553-14.553-38.232-14.553-52.788,0 c-14.553,14.553-14.553,38.233,0,52.786L110.93,299.318c0.826,0.826,1.687,1.604,2.574,2.343l-27.059,60.364 c-2.304,5.141-0.005,11.176,5.135,13.48c1.356,0.608,2.772,0.895,4.167,0.895c3.895,0,7.616-2.245,9.314-6.03l8.972-20.014h183.789 c5.632,0,10.2-4.566,10.2-10.2c0-5.633-4.568-10.2-10.2-10.2H123.176l8.994-20.064c1.694,0.233,3.414,0.358,5.153,0.358h220.558 l26.951,60.119c1.697,3.785,5.417,6.03,9.314,6.03c1.394,0,2.812-0.288,4.167-0.895c5.14-2.304,7.439-8.339,5.135-13.48 l-23.21-51.775h35.888l32.171,32.173c7.05,7.05,16.425,10.932,26.394,10.932s19.343-3.883,26.393-10.932 C515.639,327.869,515.639,304.189,501.086,289.636z M209.081,207.031v28.567h-56.295l-28.567-28.567H209.081z M486.662,327.997 c-3.198,3.197-7.449,4.957-11.971,4.957c-4.521,0-8.771-1.761-11.967-4.957l-35.159-35.159c-1.914-1.912-4.507-2.988-7.212-2.988 h-283.03c-4.522,0-8.773-1.761-11.969-4.958L25.341,184.878c-6.6-6.6-6.6-17.339-0.001-23.938c3.301-3.3,7.635-4.95,11.97-4.95 c4.334,0,8.669,1.65,11.968,4.949l92.07,92.07c1.914,1.912,4.507,2.988,7.212,2.988h283.028c4.522,0,8.773,1.76,11.969,4.957 l43.104,43.105C493.26,310.66,493.26,321.398,486.662,327.997z"/> <path d="M341.68,329.957h-7.14c-5.632,0-10.2,4.566-10.2,10.2s4.568,10.2,10.2,10.2h7.14c5.632,0,10.2-4.566,10.2-10.2 S347.313,329.957,341.68,329.957z"/> </g>

<g id="SVGRepo_iconCarrier"> <path style="fill:#F15A24;" d="M474.692,343.155c-6.943,0.001-13.884-2.648-19.181-7.945l-35.159-35.159H137.324 c-7.195,0-14.094-2.858-19.181-7.945L18.128,192.092c-10.593-10.594-10.593-27.769,0-38.363c10.593-10.593,27.769-10.593,38.363,0 l92.07,92.07h283.028c7.195,0,14.094,2.858,19.181,7.945l43.104,43.105c10.593,10.594,10.593,27.769,0,38.363 C488.578,340.506,481.634,343.154,474.692,343.155z"/> <path d="M501.086,289.636l-43.105-43.106c-7.05-7.049-16.424-10.931-26.393-10.931H229.481v-28.567h26.52 c5.632,0,10.2-4.566,10.2-10.2s-4.568-10.2-10.2-10.2H103.819l-40.116-40.116c-14.553-14.553-38.232-14.553-52.788,0 c-14.553,14.553-14.553,38.233,0,52.786L110.93,299.318c0.826,0.826,1.687,1.604,2.574,2.343l-27.059,60.364 c-2.304,5.141-0.005,11.176,5.135,13.48c1.356,0.608,2.772,0.895,4.167,0.895c3.895,0,7.616-2.245,9.314-6.03l8.972-20.014h183.789 c5.632,0,10.2-4.566,10.2-10.2c0-5.633-4.568-10.2-10.2-10.2H123.176l8.994-20.064c1.694,0.233,3.414,0.358,5.153,0.358h220.558 l26.951,60.119c1.697,3.785,5.417,6.03,9.314,6.03c1.394,0,2.812-0.288,4.167-0.895c5.14-2.304,7.439-8.339,5.135-13.48 l-23.21-51.775h35.888l32.171,32.173c7.05,7.05,16.425,10.932,26.394,10.932s19.343-3.883,26.393-10.932 C515.639,327.869,515.639,304.189,501.086,289.636z M209.081,207.031v28.567h-56.295l-28.567-28.567H209.081z M486.662,327.997 c-3.198,3.197-7.449,4.957-11.971,4.957c-4.521,0-8.771-1.761-11.967-4.957l-35.159-35.159c-1.914-1.912-4.507-2.988-7.212-2.988 h-283.03c-4.522,0-8.773-1.761-11.969-4.958L25.341,184.878c-6.6-6.6-6.6-17.339-0.001-23.938c3.301-3.3,7.635-4.95,11.97-4.95 c4.334,0,8.669,1.65,11.968,4.949l92.07,92.07c1.914,1.912,4.507,2.988,7.212,2.988h283.028c4.522,0,8.773,1.76,11.969,4.957 l43.104,43.105C493.26,310.66,493.26,321.398,486.662,327.997z"/> <path d="M341.68,329.957h-7.14c-5.632,0-10.2,4.566-10.2,10.2s4.568,10.2,10.2,10.2h7.14c5.632,0,10.2-4.566,10.2-10.2 S347.313,329.957,341.68,329.957z"/> </g>

</svg>